<svg width="1448" height="290" viewBox="0 0 1448 290" fill="none" xmlns="http://www.w3.org/2000/svg">
<path d="M-60 286C-68.8 286 -75.6 283.733 -80.4 279.2C-84.9333 274.4 -87.2 267.6 -87.2 258.8V31.2C-87.2 22.4 -84.9333 15.7333 -80.4 11.2C-75.6 6.39998 -68.8 3.99998 -60 3.99998H36C55.7333 3.99998 72.5333 6.93332 86.4 12.8C100.267 18.6667 110.8 27.0667 118 38C125.467 48.9333 129.2 62 129.2 77.2C129.2 94.2667 124.267 108.667 114.4 120.4C104.533 132.133 91.0667 140 74 144V138C93.7333 140.933 109.067 148.4 120 160.4C130.933 172.4 136.4 188 136.4 207.2C136.4 232.267 127.867 251.733 110.8 265.6C94 279.2 70.5333 286 40.4 286H-60ZM-38 247.2H34C52.1333 247.2 65.4667 243.733 74 236.8C82.5333 229.6 86.8 218.933 86.8 204.8C86.8 190.4 82.5333 179.733 74 172.8C65.4667 165.867 52.1333 162.4 34 162.4H-38V247.2ZM-38 123.6H27.2C44.8 123.6 57.8667 120.267 66.4 113.6C75.2 106.667 79.6 96.5333 79.6 83.2C79.6 69.8667 75.2 59.8667 66.4 53.2C57.8667 46.2667 44.8 42.8 27.2 42.8H-38V123.6ZM189.038 289.2C182.638 289.2 177.438 287.733 173.438 284.8C169.704 281.867 167.438 278 166.638 273.2C165.838 268.133 166.771 262.533 169.438 256.4L275.038 22.4C278.504 14.6667 282.638 9.19999 287.438 5.99998C292.504 2.53331 298.238 0.799976 304.638 0.799976C310.771 0.799976 316.238 2.53331 321.038 5.99998C326.104 9.19999 330.371 14.6667 333.838 22.4L439.838 256.4C442.771 262.533 443.838 268.133 443.038 273.2C442.238 278.267 439.971 282.267 436.238 285.2C432.504 287.867 427.571 289.2 421.438 289.2C413.971 289.2 408.104 287.467 403.838 284C399.838 280.267 396.238 274.667 393.038 267.2L367.038 206.8L388.638 220.8H219.838L241.438 206.8L215.838 267.2C212.371 274.933 208.771 280.533 205.038 284C201.304 287.467 195.971 289.2 189.038 289.2ZM303.838 59.6L247.838 192.8L237.438 180H371.038L361.037 192.8L304.638 59.6H303.838ZM507.894 289.2C500.16 289.2 494.16 287.067 489.894 282.8C485.894 278.533 483.894 272.4 483.894 264.4V26.4C483.894 18.1333 485.894 11.8667 489.894 7.59998C494.16 3.06665 499.627 0.799976 506.294 0.799976C512.427 0.799976 516.96 1.99998 519.894 4.39998C523.094 6.53332 526.827 10.2666 531.094 15.6L684.294 214.4H673.894V25.2C673.894 17.4667 675.894 11.4666 679.894 7.19999C684.16 2.93331 690.16 0.799976 697.894 0.799976C705.627 0.799976 711.494 2.93331 715.494 7.19999C719.494 11.4666 721.494 17.4667 721.494 25.2V265.2C721.494 272.667 719.627 278.533 715.894 282.8C712.16 287.067 707.094 289.2 700.694 289.2C694.56 289.2 689.627 288 685.894 285.6C682.427 283.2 678.56 279.333 674.294 274L521.494 75.2H531.494V264.4C531.494 272.4 529.494 278.533 525.494 282.8C521.494 287.067 515.627 289.2 507.894 289.2ZM807.113 289.2C799.379 289.2 793.379 287.067 789.113 282.8C785.113 278.533 783.113 272.4 783.113 264.4V26.4C783.113 18.1333 785.113 11.8667 789.113 7.59998C793.379 3.06665 798.846 0.799976 805.513 0.799976C811.646 0.799976 816.179 1.99998 819.113 4.39998C822.313 6.53332 826.046 10.2666 830.313 15.6L983.513 214.4H973.113V25.2C973.113 17.4667 975.113 11.4666 979.113 7.19999C983.379 2.93331 989.379 0.799976 997.113 0.799976C1004.85 0.799976 1010.71 2.93331 1014.71 7.19999C1018.71 11.4666 1020.71 17.4667 1020.71 25.2V265.2C1020.71 272.667 1018.85 278.533 1015.11 282.8C1011.38 287.067 1006.31 289.2 999.913 289.2C993.779 289.2 988.846 288 985.113 285.6C981.646 283.2 977.779 279.333 973.513 274L820.713 75.2H830.713V264.4C830.713 272.4 828.713 278.533 824.713 282.8C820.713 287.067 814.846 289.2 807.113 289.2ZM1109.53 286C1100.73 286 1093.93 283.733 1089.13 279.2C1084.6 274.4 1082.33 267.6 1082.33 258.8V31.2C1082.33 22.4 1084.6 15.7333 1089.13 11.2C1093.93 6.39998 1100.73 3.99998 1109.53 3.99998H1252.33C1259 3.99998 1264.06 5.73332 1267.53 9.19999C1271.26 12.6667 1273.13 17.6 1273.13 24C1273.13 30.6666 1271.26 35.8666 1267.53 39.6C1264.06 43.0666 1259 44.8 1252.33 44.8H1131.53V122.4H1243.53C1250.46 122.4 1255.66 124.133 1259.13 127.6C1262.6 131.067 1264.33 136.133 1264.33 142.8C1264.33 149.467 1262.6 154.533 1259.13 158C1255.66 161.467 1250.46 163.2 1243.53 163.2H1131.53V245.2H1252.33C1259 245.2 1264.06 246.933 1267.53 250.4C1271.26 253.867 1273.13 258.933 1273.13 265.6C1273.13 272.267 1271.26 277.333 1267.53 280.8C1264.06 284.267 1259 286 1252.33 286H1109.53ZM1346.6 289.2C1338.34 289.2 1331.94 286.933 1327.4 282.4C1323.14 277.6 1321 271.067 1321 262.8V30C1321 21.4666 1323.27 15.0667 1327.8 10.8C1332.34 6.26665 1338.74 3.99998 1347 3.99998H1443.4C1474.34 3.99998 1498.2 11.4666 1515 26.4C1531.8 41.0666 1540.2 61.7333 1540.2 88.4C1540.2 105.733 1536.34 120.667 1528.6 133.2C1521.14 145.733 1510.2 155.333 1495.8 162C1481.4 168.667 1463.94 172 1443.4 172L1447 166H1460.2C1471.14 166 1480.6 168.667 1488.6 174C1496.87 179.333 1504.07 187.733 1510.2 199.2L1540.2 254.8C1543.4 260.4 1544.87 265.867 1544.6 271.2C1544.34 276.533 1542.34 280.933 1538.6 284.4C1534.87 287.6 1529.4 289.2 1522.2 289.2C1515 289.2 1509.14 287.733 1504.6 284.8C1500.07 281.6 1496.07 276.8 1492.6 270.4L1452.2 196C1447.4 186.933 1441.67 180.933 1435 178C1428.6 174.8 1420.34 173.2 1410.2 173.2H1372.2V262.8C1372.2 271.067 1370.07 277.6 1365.8 282.4C1361.54 286.933 1355.14 289.2 1346.6 289.2ZM1372.2 135.2H1434.6C1453 135.2 1466.87 131.467 1476.2 124C1485.8 116.267 1490.6 104.8 1490.6 89.6C1490.6 74.6666 1485.8 63.4666 1476.2 56C1466.87 48.2667 1453 44.4 1434.6 44.4H1372.2V135.2Z" fill="#76A1A6"/>
</svg>
