<svg width="400" height="102" viewBox="0 0 400 102" fill="none" xmlns="http://www.w3.org/2000/svg">
<path d="M10.4 100C6.01333 100 2.65333 98.88 0.320001 96.64C-1.92 94.3067 -3.04 90.9933 -3.04 86.7V14.6C-3.04 10.3067 -1.92 7.04 0.320001 4.8C2.65333 2.46666 6.01333 1.29999 10.4 1.29999H57.86C61.22 1.29999 63.74 2.13999 65.42 3.81999C67.1 5.5 67.94 7.92666 67.94 11.1C67.94 14.3667 67.1 16.8867 65.42 18.66C63.74 20.34 61.22 21.18 57.86 21.18H21.6V39.94H54.78C58.0467 39.94 60.52 40.78 62.2 42.46C63.9733 44.14 64.86 46.6133 64.86 49.88C64.86 53.1467 63.9733 55.62 62.2 57.3C60.52 58.98 58.0467 59.82 54.78 59.82H21.6V80.12H57.86C61.22 80.12 63.74 81.0067 65.42 82.78C67.1 84.46 67.94 86.8867 67.94 90.06C67.94 93.3267 67.1 95.8 65.42 97.48C63.74 99.16 61.22 100 57.86 100H10.4ZM96.3961 100C92.0094 100 88.6494 98.88 86.3161 96.64C84.0761 94.3067 82.9561 90.9933 82.9561 86.7V14.6C82.9561 10.3067 84.0761 7.04 86.3161 4.8C88.6494 2.46666 92.0094 1.29999 96.3961 1.29999H123.836C141.009 1.29999 154.263 5.59333 163.596 14.18C173.023 22.7667 177.736 34.9 177.736 50.58C177.736 58.42 176.523 65.42 174.096 71.58C171.669 77.6467 168.169 82.8267 163.596 87.12C159.023 91.32 153.376 94.54 146.656 96.78C140.029 98.9267 132.423 100 123.836 100H96.3961ZM108.716 79.14H122.156C127.103 79.14 131.349 78.5333 134.896 77.32C138.536 76.1067 141.523 74.3333 143.856 72C146.283 69.6667 148.056 66.7267 149.176 63.18C150.389 59.6333 150.996 55.4333 150.996 50.58C150.996 40.8733 148.616 33.7333 143.856 29.16C139.096 24.4933 131.863 22.16 122.156 22.16H108.716V79.14ZM205.895 101.26C201.788 101.26 198.615 100.14 196.375 97.9C194.135 95.5667 193.015 92.3 193.015 88.1V13.2C193.015 8.90667 194.135 5.64 196.375 3.39999C198.615 1.15999 201.788 0.0399935 205.895 0.0399935C210.095 0.0399935 213.268 1.15999 215.415 3.39999C217.655 5.64 218.775 8.90667 218.775 13.2V88.1C218.775 92.3 217.701 95.5667 215.555 97.9C213.408 100.14 210.188 101.26 205.895 101.26ZM272.748 101.26C268.641 101.26 265.468 100.14 263.228 97.9C260.988 95.5667 259.868 92.3467 259.868 88.24V22.3H237.888C234.435 22.3 231.775 21.4133 229.908 19.64C228.135 17.7733 227.248 15.16 227.248 11.8C227.248 8.34666 228.135 5.73333 229.908 3.95999C231.775 2.18666 234.435 1.29999 237.888 1.29999H307.608C311.061 1.29999 313.675 2.18666 315.448 3.95999C317.315 5.73333 318.248 8.34666 318.248 11.8C318.248 15.16 317.315 17.7733 315.448 19.64C313.675 21.4133 311.061 22.3 307.608 22.3H285.628V88.24C285.628 92.3467 284.555 95.5667 282.408 97.9C280.261 100.14 277.041 101.26 272.748 101.26ZM320.271 101.26C317.378 101.26 314.951 100.607 312.991 99.3C311.031 97.9 309.818 96.0333 309.351 93.7C308.885 91.2733 309.305 88.5667 310.611 85.58L345.471 10.54C347.151 6.89999 349.205 4.24 351.631 2.55999C354.151 0.879994 356.998 0.0399935 360.171 0.0399935C363.345 0.0399935 366.098 0.879994 368.431 2.55999C370.858 4.24 372.958 6.89999 374.731 10.54L409.591 85.58C411.085 88.5667 411.598 91.2733 411.131 93.7C410.758 96.1267 409.591 97.9933 407.631 99.3C405.765 100.607 403.431 101.26 400.631 101.26C396.898 101.26 394.005 100.42 391.951 98.74C389.991 97.06 388.218 94.3533 386.631 90.62L379.071 72.84L388.871 79.98H331.191L341.131 72.84L333.571 90.62C331.891 94.3533 330.165 97.06 328.391 98.74C326.618 100.42 323.911 101.26 320.271 101.26ZM359.891 28.18L343.651 66.96L339.731 60.24H380.471L376.551 66.96L360.171 28.18H359.891ZM435.449 100C431.342 100 428.122 98.88 425.789 96.64C423.549 94.3067 422.429 91.0867 422.429 86.98V14.18C422.429 9.97999 423.549 6.75999 425.789 4.51999C428.029 2.28 431.202 1.16 435.309 1.16C439.509 1.16 442.682 2.28 444.829 4.51999C447.069 6.75999 448.189 9.97999 448.189 14.18V78.58H482.349C485.895 78.58 488.602 79.5133 490.469 81.38C492.429 83.1533 493.409 85.7667 493.409 89.22C493.409 92.6733 492.429 95.3333 490.469 97.2C488.602 99.0667 485.895 100 482.349 100H435.449ZM557.402 100C553.949 100 551.289 99.1133 549.422 97.34C547.649 95.4733 546.762 92.86 546.762 89.5C546.762 86.14 547.649 83.5733 549.422 81.8C551.289 80.0267 553.949 79.14 557.402 79.14H570.002V21.88H581.762L561.462 34.34C559.035 35.8333 556.749 36.44 554.602 36.16C552.455 35.7867 550.635 34.8533 549.142 33.36C547.649 31.8667 546.669 30.0467 546.202 27.9C545.735 25.7533 545.922 23.6067 546.762 21.46C547.602 19.3133 549.282 17.4933 551.802 16L571.122 3.95999C573.175 2.65333 575.275 1.67333 577.422 1.02C579.662 0.366662 581.995 0.0399935 584.422 0.0399935C587.969 0.0399935 590.722 0.973329 592.682 2.84C594.642 4.61333 595.622 7.22667 595.622 10.68V79.14H606.822C610.275 79.14 612.889 80.0267 614.662 81.8C616.529 83.5733 617.462 86.14 617.462 89.5C617.462 92.86 616.529 95.4733 614.662 97.34C612.889 99.1133 610.275 100 606.822 100H557.402Z" fill="#76A1A6"/>
</svg>
