<svg width="1543" height="228" viewBox="0 0 1543 228" fill="none" xmlns="http://www.w3.org/2000/svg">
<path d="M27.2 231.2C18.9333 231.2 12.4 228.933 7.6 224.4C3.06667 219.6 0.800003 212.8 0.800003 204V-26.8C0.800003 -35.6 3.06667 -42.2667 7.6 -46.8C12.4 -51.6 19.2 -54 28 -54H167.6C174.533 -54 179.733 -52.2667 183.2 -48.8C186.667 -45.3333 188.4 -40.4 188.4 -34C188.4 -27.3334 186.667 -22.1334 183.2 -18.4C179.733 -14.9334 174.533 -13.2 167.6 -13.2H52V66.4H159.2C165.867 66.4 170.933 68.1333 174.4 71.6C178.133 75.0667 180 80 180 86.4C180 93.0667 178.133 98.2667 174.4 102C170.933 105.467 165.867 107.2 159.2 107.2H52V204C52 222.133 43.7333 231.2 27.2 231.2ZM346.731 232C319.531 232 295.665 226 275.131 214C254.865 202 239.131 185.2 227.931 163.6C216.731 141.733 211.131 116.133 211.131 86.8C211.131 64.6667 214.331 44.8 220.731 27.2C227.131 9.33333 236.198 -5.86668 247.931 -18.4C259.931 -31.2 274.198 -40.9333 290.731 -47.6C307.531 -54.5333 326.198 -58 346.731 -58C374.198 -58 398.065 -52 418.331 -40C438.598 -28.2667 454.331 -11.6 465.531 9.99999C476.731 31.6 482.331 57.0667 482.331 86.4C482.331 108.533 479.131 128.533 472.731 146.4C466.331 164.267 457.131 179.6 445.131 192.4C433.398 205.2 419.131 215.067 402.331 222C385.798 228.667 367.265 232 346.731 232ZM346.731 188C364.065 188 378.731 184 390.731 176C402.998 168 412.331 156.4 418.731 141.2C425.398 126 428.731 107.867 428.731 86.8C428.731 54.8 421.531 30 407.131 12.4C392.998 -5.20001 372.865 -14 346.731 -14C329.665 -14 314.998 -10 302.731 -2.00002C290.465 5.73333 280.998 17.2 274.331 32.4C267.931 47.3333 264.731 65.4667 264.731 86.8C264.731 118.533 271.931 143.333 286.331 161.2C300.731 179.067 320.865 188 346.731 188ZM660.794 232C633.594 232 609.727 226 589.194 214C568.927 202 553.194 185.2 541.994 163.6C530.794 141.733 525.194 116.133 525.194 86.8C525.194 64.6667 528.394 44.8 534.794 27.2C541.194 9.33333 550.26 -5.86668 561.994 -18.4C573.994 -31.2 588.26 -40.9333 604.794 -47.6C621.594 -54.5333 640.26 -58 660.794 -58C688.26 -58 712.127 -52 732.394 -40C752.66 -28.2667 768.394 -11.6 779.594 9.99999C790.794 31.6 796.394 57.0667 796.394 86.4C796.394 108.533 793.194 128.533 786.794 146.4C780.394 164.267 771.194 179.6 759.194 192.4C747.46 205.2 733.194 215.067 716.394 222C699.86 228.667 681.327 232 660.794 232ZM660.794 188C678.127 188 692.794 184 704.794 176C717.06 168 726.394 156.4 732.794 141.2C739.46 126 742.794 107.867 742.794 86.8C742.794 54.8 735.594 30 721.194 12.4C707.06 -5.20001 686.927 -14 660.794 -14C643.727 -14 629.06 -10 616.794 -2.00002C604.527 5.73333 595.06 17.2 588.394 32.4C581.994 47.3333 578.794 65.4667 578.794 86.8C578.794 118.533 585.994 143.333 600.394 161.2C614.794 179.067 634.927 188 660.794 188ZM924.869 231.2C916.602 231.2 910.202 228.933 905.669 224.4C901.402 219.6 899.269 213.067 899.269 204.8V-11.2H821.269C814.335 -11.2 808.869 -13.0667 804.869 -16.8C801.135 -20.8 799.269 -26.1333 799.269 -32.8C799.269 -39.7333 801.135 -44.9333 804.869 -48.4C808.869 -52.1334 814.335 -54 821.269 -54H1028.47C1035.4 -54 1040.74 -52.1334 1044.47 -48.4C1048.47 -44.9333 1050.47 -39.7333 1050.47 -32.8C1050.47 -26.1333 1048.47 -20.8 1044.47 -16.8C1040.74 -13.0667 1035.4 -11.2 1028.47 -11.2H950.469V204.8C950.469 213.067 948.335 219.6 944.069 224.4C939.802 228.933 933.402 231.2 924.869 231.2ZM1106.91 228C1098.11 228 1091.31 225.733 1086.51 221.2C1081.97 216.4 1079.71 209.6 1079.71 200.8V-26.8C1079.71 -35.6 1081.97 -42.2667 1086.51 -46.8C1091.31 -51.6 1098.11 -54 1106.91 -54H1249.71C1256.37 -54 1261.44 -52.2667 1264.91 -48.8C1268.64 -45.3333 1270.51 -40.4 1270.51 -34C1270.51 -27.3334 1268.64 -22.1334 1264.91 -18.4C1261.44 -14.9334 1256.37 -13.2 1249.71 -13.2H1128.91V64.4H1240.91C1247.84 64.4 1253.04 66.1333 1256.51 69.6C1259.97 73.0667 1261.71 78.1333 1261.71 84.8C1261.71 91.4667 1259.97 96.5333 1256.51 100C1253.04 103.467 1247.84 105.2 1240.91 105.2H1128.91V187.2H1249.71C1256.37 187.2 1261.44 188.933 1264.91 192.4C1268.64 195.867 1270.51 200.933 1270.51 207.6C1270.51 214.267 1268.64 219.333 1264.91 222.8C1261.44 226.267 1256.37 228 1249.71 228H1106.91ZM1343.98 231.2C1335.71 231.2 1329.31 228.933 1324.78 224.4C1320.51 219.6 1318.38 213.067 1318.38 204.8V-28C1318.38 -36.5334 1320.64 -42.9333 1325.18 -47.2C1329.71 -51.7333 1336.11 -54 1344.38 -54H1440.78C1471.71 -54 1495.58 -46.5334 1512.38 -31.6C1529.18 -16.9334 1537.58 3.73332 1537.58 30.4C1537.58 47.7333 1533.71 62.6667 1525.98 75.2C1518.51 87.7333 1507.58 97.3333 1493.18 104C1478.78 110.667 1461.31 114 1440.78 114L1444.38 108H1457.58C1468.51 108 1477.98 110.667 1485.98 116C1494.24 121.333 1501.44 129.733 1507.58 141.2L1537.58 196.8C1540.78 202.4 1542.24 207.867 1541.98 213.2C1541.71 218.533 1539.71 222.933 1535.98 226.4C1532.24 229.6 1526.78 231.2 1519.58 231.2C1512.38 231.2 1506.51 229.733 1501.98 226.8C1497.44 223.6 1493.44 218.8 1489.98 212.4L1449.58 138C1444.78 128.933 1439.04 122.933 1432.38 120C1425.98 116.8 1417.71 115.2 1407.58 115.2H1369.58V204.8C1369.58 213.067 1367.44 219.6 1363.18 224.4C1358.91 228.933 1352.51 231.2 1343.98 231.2ZM1369.58 77.2H1431.98C1450.38 77.2 1464.24 73.4667 1473.58 66C1483.18 58.2667 1487.98 46.8 1487.98 31.6C1487.98 16.6666 1483.18 5.46665 1473.58 -2.00002C1464.24 -9.73335 1450.38 -13.6 1431.98 -13.6H1369.58V77.2Z" fill="#76A1A6"/>
</svg>
