<svg width="163" height="100" viewBox="0 0 163 100" fill="none" xmlns="http://www.w3.org/2000/svg">
<path d="M81.5 -26C36.4712 -26 0 10.2467 0 54.9982C0 90.8399 23.3294 121.113 55.7256 131.845C59.8006 132.554 61.3287 130.124 61.3287 127.998C61.3287 126.074 61.2269 119.696 61.2269 112.912C40.75 116.658 35.4525 107.951 33.8225 103.395C32.9056 101.066 28.9325 93.8774 25.4688 91.9536C22.6162 90.4349 18.5412 86.6888 25.3669 86.5875C31.785 86.4863 36.3694 92.4599 37.8975 94.8898C45.2325 107.141 56.9481 103.698 61.6344 101.572C62.3475 96.3073 64.4869 92.7636 66.83 90.7387C48.6962 88.7137 29.7475 81.7276 29.7475 50.7458C29.7475 41.9373 32.9056 34.6474 38.1013 28.9775C37.2863 26.9526 34.4337 18.6503 38.9162 7.51301C38.9162 7.51301 45.7419 5.38681 61.3287 15.8153C67.8487 13.9929 74.7763 13.0816 81.7038 13.0816C88.6313 13.0816 95.5588 13.9929 102.079 15.8153C117.666 5.28556 124.491 7.51301 124.491 7.51301C128.974 18.6503 126.121 26.9526 125.306 28.9775C130.502 34.6474 133.66 41.836 133.66 50.7458C133.66 81.8289 114.609 88.7137 96.4756 90.7387C99.43 93.2699 101.977 98.1298 101.977 105.723C101.977 116.557 101.875 125.264 101.875 127.998C101.875 130.124 103.403 132.655 107.478 131.845C123.658 126.418 137.718 116.084 147.678 102.299C157.638 88.513 162.997 71.9698 163 54.9982C163 10.2467 126.529 -26 81.5 -26Z" fill="#001318"/>
</svg>
