<svg width="1609" height="160" viewBox="0 0 1609 160" fill="none" xmlns="http://www.w3.org/2000/svg">
<path d="M26.4 231.2C18.1333 231.2 11.7333 228.933 7.2 224.4C2.93334 219.6 0.800003 213.067 0.800003 204.8V-30.8C0.800003 -39.3333 2.93334 -45.8667 7.2 -50.4C11.7333 -54.9334 18.1333 -57.2 26.4 -57.2C34.6667 -57.2 40.9333 -54.9334 45.2 -50.4C49.7333 -45.8667 52 -39.3333 52 -30.8V63.6H197.2V-30.8C197.2 -39.3333 199.333 -45.8667 203.6 -50.4C208.133 -54.9334 214.533 -57.2 222.8 -57.2C231.067 -57.2 237.333 -54.9334 241.6 -50.4C246.133 -45.8667 248.4 -39.3333 248.4 -30.8V204.8C248.4 213.067 246.133 219.6 241.6 224.4C237.333 228.933 231.067 231.2 222.8 231.2C214.533 231.2 208.133 228.933 203.6 224.4C199.333 219.6 197.2 213.067 197.2 204.8V106.4H52V204.8C52 213.067 49.8667 219.6 45.6 224.4C41.3333 228.933 34.9333 231.2 26.4 231.2ZM337.375 228C328.575 228 321.775 225.733 316.975 221.2C312.442 216.4 310.175 209.6 310.175 200.8V-26.8C310.175 -35.6 312.442 -42.2667 316.975 -46.8C321.775 -51.6 328.575 -54 337.375 -54H480.175C486.842 -54 491.908 -52.2667 495.375 -48.8C499.108 -45.3333 500.975 -40.4 500.975 -34C500.975 -27.3334 499.108 -22.1334 495.375 -18.4C491.908 -14.9334 486.842 -13.2 480.175 -13.2H359.375V64.4H471.375C478.308 64.4 483.508 66.1333 486.975 69.6C490.442 73.0667 492.175 78.1333 492.175 84.8C492.175 91.4667 490.442 96.5333 486.975 100C483.508 103.467 478.308 105.2 471.375 105.2H359.375V187.2H480.175C486.842 187.2 491.908 188.933 495.375 192.4C499.108 195.867 500.975 200.933 500.975 207.6C500.975 214.267 499.108 219.333 495.375 222.8C491.908 226.267 486.842 228 480.175 228H337.375ZM546.569 231.2C540.169 231.2 534.969 229.733 530.969 226.8C527.235 223.867 524.969 220 524.169 215.2C523.369 210.133 524.302 204.533 526.969 198.4L632.569 -35.6C636.035 -43.3333 640.169 -48.8 644.969 -52C650.035 -55.4667 655.769 -57.2 662.169 -57.2C668.302 -57.2 673.769 -55.4667 678.569 -52C683.635 -48.8 687.902 -43.3333 691.369 -35.6L797.369 198.4C800.302 204.533 801.369 210.133 800.569 215.2C799.769 220.267 797.502 224.267 793.769 227.2C790.035 229.867 785.102 231.2 778.969 231.2C771.502 231.2 765.635 229.467 761.369 226C757.369 222.267 753.769 216.667 750.569 209.2L724.569 148.8L746.169 162.8H577.369L598.969 148.8L573.369 209.2C569.902 216.933 566.302 222.533 562.569 226C558.835 229.467 553.502 231.2 546.569 231.2ZM661.369 1.59998L605.369 134.8L594.969 122H728.569L718.569 134.8L662.169 1.59998H661.369ZM868.625 228C859.825 228 853.025 225.733 848.225 221.2C843.692 216.4 841.425 209.6 841.425 200.8V-26.8C841.425 -35.6 843.692 -42.2667 848.225 -46.8C853.025 -51.6 859.825 -54 868.625 -54H946.225C993.425 -54 1029.83 -41.8667 1055.43 -17.6C1081.29 6.66666 1094.23 41.4667 1094.23 86.8C1094.23 109.467 1090.89 129.6 1084.23 147.2C1077.83 164.533 1068.23 179.2 1055.43 191.2C1042.89 203.2 1027.43 212.4 1009.03 218.8C990.892 224.933 969.958 228 946.225 228H868.625ZM892.625 185.6H943.025C959.558 185.6 973.825 183.6 985.825 179.6C998.092 175.333 1008.23 169.2 1016.22 161.2C1024.49 152.933 1030.63 142.667 1034.63 130.4C1038.63 117.867 1040.63 103.333 1040.63 86.8C1040.63 53.7333 1032.49 29.0667 1016.22 12.8C999.958 -3.46668 975.558 -11.6 943.025 -11.6H892.625V185.6ZM1173.31 228C1164.51 228 1157.71 225.733 1152.91 221.2C1148.38 216.4 1146.11 209.6 1146.11 200.8V-26.8C1146.11 -35.6 1148.38 -42.2667 1152.91 -46.8C1157.71 -51.6 1164.51 -54 1173.31 -54H1316.11C1322.78 -54 1327.85 -52.2667 1331.31 -48.8C1335.05 -45.3333 1336.91 -40.4 1336.91 -34C1336.91 -27.3334 1335.05 -22.1334 1331.31 -18.4C1327.85 -14.9334 1322.78 -13.2 1316.11 -13.2H1195.31V64.4H1307.31C1314.25 64.4 1319.45 66.1333 1322.91 69.6C1326.38 73.0667 1328.11 78.1333 1328.11 84.8C1328.11 91.4667 1326.38 96.5333 1322.91 100C1319.45 103.467 1314.25 105.2 1307.31 105.2H1195.31V187.2H1316.11C1322.78 187.2 1327.85 188.933 1331.31 192.4C1335.05 195.867 1336.91 200.933 1336.91 207.6C1336.91 214.267 1335.05 219.333 1331.31 222.8C1327.85 226.267 1322.78 228 1316.11 228H1173.31ZM1410.38 231.2C1402.12 231.2 1395.72 228.933 1391.18 224.4C1386.92 219.6 1384.78 213.067 1384.78 204.8V-28C1384.78 -36.5334 1387.05 -42.9333 1391.58 -47.2C1396.12 -51.7333 1402.52 -54 1410.78 -54H1507.18C1538.12 -54 1561.98 -46.5334 1578.78 -31.6C1595.58 -16.9334 1603.98 3.73332 1603.98 30.4C1603.98 47.7333 1600.12 62.6667 1592.38 75.2C1584.92 87.7333 1573.98 97.3333 1559.58 104C1545.18 110.667 1527.72 114 1507.18 114L1510.78 108H1523.98C1534.92 108 1544.38 110.667 1552.38 116C1560.65 121.333 1567.85 129.733 1573.98 141.2L1603.98 196.8C1607.18 202.4 1608.65 207.867 1608.38 213.2C1608.12 218.533 1606.12 222.933 1602.38 226.4C1598.65 229.6 1593.18 231.2 1585.98 231.2C1578.78 231.2 1572.92 229.733 1568.38 226.8C1563.85 223.6 1559.85 218.8 1556.38 212.4L1515.98 138C1511.18 128.933 1505.45 122.933 1498.78 120C1492.38 116.8 1484.12 115.2 1473.98 115.2H1435.98V204.8C1435.98 213.067 1433.85 219.6 1429.58 224.4C1425.32 228.933 1418.92 231.2 1410.38 231.2ZM1435.98 77.2H1498.38C1516.78 77.2 1530.65 73.4667 1539.98 66C1549.58 58.2667 1554.38 46.8 1554.38 31.6C1554.38 16.6666 1549.58 5.46665 1539.98 -2.00002C1530.65 -9.73335 1516.78 -13.6 1498.38 -13.6H1435.98V77.2Z" fill="#76A1A6"/>
</svg>
